<svg xmlns="http://www.w3.org/2000/svg" viewBox="0 0 540 150" width="100%" height="100%">
  <defs>
    <linearGradient id="limeGradLight" x1="0%" y1="0%" x2="100%" y2="100%">
      <stop offset="0%" stop-color="#D7EF5E" />
      <stop offset="100%" stop-color="#B9D63C" />
    </linearGradient>
  </defs>

  <g transform="translate(10, 5)">
    <path d="M 65 15 C 30 15, 10 40, 10 75 C 10 115, 45 135, 75 135 C 110 135, 130 110, 130 75 C 130 55, 115 35, 95 25" 
          fill="none" stroke="#FFFFFF" stroke-width="12" stroke-linecap="round" />
    <path d="M 75 135 C 115 135, 138 105, 138 70 C 138 45, 120 20, 90 12" 
          fill="none" stroke="url(#limeGradLight)" stroke-width="10" stroke-linecap="round" />
    <path d="M 70 50 C 60 38, 42 50, 55 68 L 70 85 L 85 68 C 98 50, 80 38, 70 50 Z" 
          fill="#B9D63C" />
    <circle cx="56" cy="44" r="5.5" fill="#FFFFFF" />
    <circle cx="70" cy="38" r="6" fill="#FFFFFF" />
    <circle cx="84" cy="44" r="5.5" fill="#FFFFFF" />
    <path d="M 67 60 H 73 V 72 H 67 Z M 64 63 H 76 V 69 H 64 Z" fill="#E2292E" />
  </g>

  <text x="155" y="88" font-family="'Plus Jakarta Sans', 'Outfit', sans-serif" 
        font-weight="900" font-size="76" fill="#FFFFFF" letter-spacing="-2">Canbaz</text>
  
  <text x="415" y="88" font-family="'Plus Jakarta Sans', 'Outfit', sans-serif" 
        font-weight="900" font-size="76" fill="#B9D63C" letter-spacing="-2">Vet</text>

  <rect x="155" y="105" width="280" height="28" rx="6" fill="#B9D63C" />
  <text x="168" y="124" font-family="'Plus Jakarta Sans', sans-serif" 
        font-weight="900" font-size="15" fill="#00352C" letter-spacing="2.8">VETERİNER KLİNİĞİ</text>
</svg>
